<mxfile host="" modified="2020-05-24T15:21:41.060Z" agent="5.0 (X11; Linux x86_64) AppleWebKit/537.36 (KHTML, like Gecko) Code/1.45.0 Chrome/78.0.3904.130 Electron/7.2.4 Safari/537.36" version="13.1.3" etag="lrwgP8mNOWNbAz78NI_h" pages="2">
            <diagram id="diagramid" name="Diagram">
              <mxGraphModel><root><mxCell id="0"/><mxCell id="1" parent="0"/><mxCell id="2" value="imageuploadbucketpumped10AD1F81" style="outlineConnect=0;fontColor=#B3B3B3;gradientColor=#60A337;gradientDirection=north;fillColor=#277116;strokeColor=#ffffff;dashed=0;verticalLabelPosition=bottom;verticalAlign=top;align=center;html=1;fontSize=12;fontStyle=0;aspect=fixed;shape=mxgraph.aws4.resourceIcon;resIcon=mxgraph.aws4.s3;" vertex="1" parent="1"><mxGeometry x="750" y="975" width="50" height="50" as="geometry"/></mxCell><mxCell id="3" value="imageuploadbucketpumpedPolicyDF856C25" style="outlineConnect=0;fontColor=#B3B3B3;gradientColor=#60A337;gradientDirection=north;fillColor=#277116;strokeColor=#ffffff;dashed=0;verticalLabelPosition=bottom;verticalAlign=top;align=center;html=1;fontSize=12;fontStyle=0;aspect=fixed;shape=mxgraph.aws4.resourceIcon;resIcon=mxgraph.aws4.s3;" vertex="1" parent="1"><mxGeometry x="250" y="150" width="50" height="50" as="geometry"/></mxCell><mxCell id="4" value="imageuploadbucketpumpedAutoDeleteObjectsCustomResourceC875B7A8" style="outlineConnect=0;fontColor=#B3B3B3;gradientColor=#aaaaaa;gradientDirection=north;fillColor=#aaaaaa;strokeColor=#ffffff;dashed=0;verticalLabelPosition=bottom;verticalAlign=top;align=center;html=1;fontSize=12;fontStyle=0;aspect=fixed;shape=mxgraph.aws4.resourceIcon;resIcon=mxgraph.aws4.s3autodeleteobjects;" vertex="1" parent="1"><mxGeometry y="262.5" width="50" height="50" as="geometry"/></mxCell><mxCell id="5" value="imageuploadbucketpumpedNotifications9F003122" style="outlineConnect=0;fontColor=#B3B3B3;gradientColor=#aaaaaa;gradientDirection=north;fillColor=#aaaaaa;strokeColor=#ffffff;dashed=0;verticalLabelPosition=bottom;verticalAlign=top;align=center;html=1;fontSize=12;fontStyle=0;aspect=fixed;shape=mxgraph.aws4.resourceIcon;resIcon=mxgraph.aws4.s3bucketnotifications;" vertex="1" parent="1"><mxGeometry y="412.5" width="50" height="50" as="geometry"/></mxCell><mxCell id="6" value="CustomS3AutoDeleteObjectsCustomResourceProviderRole3B1BD092" style="outlineConnect=0;fontColor=#B3B3B3;gradientColor=#F54749;gradientDirection=north;fillColor=#C7131F;strokeColor=#ffffff;dashed=0;verticalLabelPosition=bottom;verticalAlign=top;align=center;html=1;fontSize=12;fontStyle=0;aspect=fixed;shape=mxgraph.aws4.resourceIcon;resIcon=mxgraph.aws4.role;" vertex="1" parent="1"><mxGeometry x="500" y="200" width="50" height="50" as="geometry"/></mxCell><mxCell id="7" value="CustomS3AutoDeleteObjectsCustomResourceProviderHandler9D90184F" style="outlineConnect=0;fontColor=#B3B3B3;gradientColor=#F78E04;gradientDirection=north;fillColor=#D05C17;strokeColor=#ffffff;dashed=0;verticalLabelPosition=bottom;verticalAlign=top;align=center;html=1;fontSize=12;fontStyle=0;aspect=fixed;shape=mxgraph.aws4.resourceIcon;resIcon=mxgraph.aws4.lambda;" vertex="1" parent="1"><mxGeometry x="250" y="300" width="50" height="50" as="geometry"/></mxCell><mxCell id="8" value="BucketNotificationsHandler050a0587b7544547bf325f094a3db834RoleB6FB88EC" style="outlineConnect=0;fontColor=#B3B3B3;gradientColor=#F54749;gradientDirection=north;fillColor=#C7131F;strokeColor=#ffffff;dashed=0;verticalLabelPosition=bottom;verticalAlign=top;align=center;html=1;fontSize=12;fontStyle=0;aspect=fixed;shape=mxgraph.aws4.resourceIcon;resIcon=mxgraph.aws4.role;" vertex="1" parent="1"><mxGeometry x="500" y="450" width="50" height="50" as="geometry"/></mxCell><mxCell id="9" value="BucketNotificationsHandler050a0587b7544547bf325f094a3db834RoleDefaultPolicy2CF63D36" style="outlineConnect=0;fontColor=#B3B3B3;gradientColor=#F54749;gradientDirection=north;fillColor=#C7131F;strokeColor=#ffffff;dashed=0;verticalLabelPosition=bottom;verticalAlign=top;align=center;html=1;fontSize=12;fontStyle=0;aspect=fixed;shape=mxgraph.aws4.resourceIcon;resIcon=mxgraph.aws4.identity_and_access_management;" vertex="1" parent="1"><mxGeometry x="250" y="550" width="50" height="50" as="geometry"/></mxCell><mxCell id="10" value="BucketNotificationsHandler050a0587b7544547bf325f094a3db8347ECC3691" style="outlineConnect=0;fontColor=#B3B3B3;gradientColor=#F78E04;gradientDirection=north;fillColor=#D05C17;strokeColor=#ffffff;dashed=0;verticalLabelPosition=bottom;verticalAlign=top;align=center;html=1;fontSize=12;fontStyle=0;aspect=fixed;shape=mxgraph.aws4.resourceIcon;resIcon=mxgraph.aws4.lambda;" vertex="1" parent="1"><mxGeometry x="250" y="450" width="50" height="50" as="geometry"/></mxCell><mxCell id="11" value="AppEventBusAEEA9E1B" style="outlineConnect=0;fontColor=#B3B3B3;gradientColor=#F34482;gradientDirection=north;fillColor=#BC1356;strokeColor=#ffffff;dashed=0;verticalLabelPosition=bottom;verticalAlign=top;align=center;html=1;fontSize=12;fontStyle=0;aspect=fixed;shape=mxgraph.aws4.resourceIcon;resIcon=mxgraph.aws4.eventbridge;" vertex="1" parent="1"><mxGeometry x="500" y="1450" width="50" height="50" as="geometry"/></mxCell><mxCell id="12" value="pumpedrestapiA51E419C" style="outlineConnect=0;fontColor=#B3B3B3;gradientColor=#945DF2;gradientDirection=north;fillColor=#5A30B5;strokeColor=#ffffff;dashed=0;verticalLabelPosition=bottom;verticalAlign=top;align=center;html=1;fontSize=12;fontStyle=0;aspect=fixed;shape=mxgraph.aws4.resourceIcon;resIcon=mxgraph.aws4.api_gateway;" vertex="1" parent="1"><mxGeometry x="750" y="800" width="50" height="50" as="geometry"/></mxCell><mxCell id="13" value="pumpedrestapiCloudWatchRole80D102B5" style="outlineConnect=0;fontColor=#B3B3B3;gradientColor=#F54749;gradientDirection=north;fillColor=#C7131F;strokeColor=#ffffff;dashed=0;verticalLabelPosition=bottom;verticalAlign=top;align=center;html=1;fontSize=12;fontStyle=0;aspect=fixed;shape=mxgraph.aws4.resourceIcon;resIcon=mxgraph.aws4.role;" vertex="1" parent="1"><mxGeometry x="250" width="50" height="50" as="geometry"/></mxCell><mxCell id="14" value="pumpedrestapiAccount8A41F302" style="outlineConnect=0;fontColor=#B3B3B3;gradientColor=#945DF2;gradientDirection=north;fillColor=#5A30B5;strokeColor=#ffffff;dashed=0;verticalLabelPosition=bottom;verticalAlign=top;align=center;html=1;fontSize=12;fontStyle=0;aspect=fixed;shape=mxgraph.aws4.resourceIcon;resIcon=mxgraph.aws4.api_gateway;" vertex="1" parent="1"><mxGeometry width="50" height="50" as="geometry"/></mxCell><mxCell id="15" value="pumpedrestapiDeploymentBF510CB5f893bbb11c815fe00d32d5635b70bcec" style="outlineConnect=0;fontColor=#B3B3B3;gradientColor=#945DF2;gradientDirection=north;fillColor=#5A30B5;strokeColor=#ffffff;dashed=0;verticalLabelPosition=bottom;verticalAlign=top;align=center;html=1;fontSize=12;fontStyle=0;aspect=fixed;shape=mxgraph.aws4.resourceIcon;resIcon=mxgraph.aws4.api_gateway;" vertex="1" parent="1"><mxGeometry x="500" y="800" width="50" height="50" as="geometry"/></mxCell><mxCell id="16" value="pumpedrestapiDeploymentStageprod7AA2D6C8" style="outlineConnect=0;fontColor=#B3B3B3;gradientColor=#945DF2;gradientDirection=north;fillColor=#5A30B5;strokeColor=#ffffff;dashed=0;verticalLabelPosition=bottom;verticalAlign=top;align=center;html=1;fontSize=12;fontStyle=0;aspect=fixed;shape=mxgraph.aws4.resourceIcon;resIcon=mxgraph.aws4.api_gateway;" vertex="1" parent="1"><mxGeometry x="250" y="750" width="50" height="50" as="geometry"/></mxCell><mxCell id="17" value="pumpedrestapiOPTIONS308FB916" style="outlineConnect=0;fontColor=#B3B3B3;gradientColor=#945DF2;gradientDirection=north;fillColor=#5A30B5;strokeColor=#ffffff;dashed=0;verticalLabelPosition=bottom;verticalAlign=top;align=center;html=1;fontSize=12;fontStyle=0;aspect=fixed;shape=mxgraph.aws4.resourceIcon;resIcon=mxgraph.aws4.api_gateway;" vertex="1" parent="1"><mxGeometry x="500" y="550" width="50" height="50" as="geometry"/></mxCell><mxCell id="18" value="pumpedrestapiupload133F41CF" style="outlineConnect=0;fontColor=#B3B3B3;gradientColor=#945DF2;gradientDirection=north;fillColor=#5A30B5;strokeColor=#ffffff;dashed=0;verticalLabelPosition=bottom;verticalAlign=top;align=center;html=1;fontSize=12;fontStyle=0;aspect=fixed;shape=mxgraph.aws4.resourceIcon;resIcon=mxgraph.aws4.api_gateway;" vertex="1" parent="1"><mxGeometry x="250" y="850" width="50" height="50" as="geometry"/></mxCell><mxCell id="19" value="pumpedrestapiuploadOPTIONS409D9992" style="outlineConnect=0;fontColor=#B3B3B3;gradientColor=#945DF2;gradientDirection=north;fillColor=#5A30B5;strokeColor=#ffffff;dashed=0;verticalLabelPosition=bottom;verticalAlign=top;align=center;html=1;fontSize=12;fontStyle=0;aspect=fixed;shape=mxgraph.aws4.resourceIcon;resIcon=mxgraph.aws4.api_gateway;" vertex="1" parent="1"><mxGeometry y="675" width="50" height="50" as="geometry"/></mxCell><mxCell id="20" value="pumpedrestapiuploadPOSTApiPermissionpumpedmainpumpedrestapi2494B0A1POSTuploadDBC44DA7" style="outlineConnect=0;fontColor=#B3B3B3;gradientColor=#F54749;gradientDirection=north;fillColor=#C7131F;strokeColor=#ffffff;dashed=0;verticalLabelPosition=bottom;verticalAlign=top;align=center;html=1;fontSize=12;fontStyle=0;aspect=fixed;shape=mxgraph.aws4.resourceIcon;resIcon=mxgraph.aws4.policy;" vertex="1" parent="1"><mxGeometry y="775" width="50" height="50" as="geometry"/></mxCell><mxCell id="21" value="pumpedrestapiuploadPOSTApiPermissionTestpumpedmainpumpedrestapi2494B0A1POSTupload8614CBD0" style="outlineConnect=0;fontColor=#B3B3B3;gradientColor=#F54749;gradientDirection=north;fillColor=#C7131F;strokeColor=#ffffff;dashed=0;verticalLabelPosition=bottom;verticalAlign=top;align=center;html=1;fontSize=12;fontStyle=0;aspect=fixed;shape=mxgraph.aws4.resourceIcon;resIcon=mxgraph.aws4.policy;" vertex="1" parent="1"><mxGeometry y="875" width="50" height="50" as="geometry"/></mxCell><mxCell id="22" value="pumpedrestapiuploadPOSTEE47E70C" style="outlineConnect=0;fontColor=#B3B3B3;gradientColor=#945DF2;gradientDirection=north;fillColor=#5A30B5;strokeColor=#ffffff;dashed=0;verticalLabelPosition=bottom;verticalAlign=top;align=center;html=1;fontSize=12;fontStyle=0;aspect=fixed;shape=mxgraph.aws4.resourceIcon;resIcon=mxgraph.aws4.api_gateway;" vertex="1" parent="1"><mxGeometry y="975" width="50" height="50" as="geometry"/></mxCell><mxCell id="23" value="lambdaRoleC844FDB1" style="outlineConnect=0;fontColor=#B3B3B3;gradientColor=#F54749;gradientDirection=north;fillColor=#C7131F;strokeColor=#ffffff;dashed=0;verticalLabelPosition=bottom;verticalAlign=top;align=center;html=1;fontSize=12;fontStyle=0;aspect=fixed;shape=mxgraph.aws4.resourceIcon;resIcon=mxgraph.aws4.role;" vertex="1" parent="1"><mxGeometry x="750" y="1325" width="50" height="50" as="geometry"/></mxCell><mxCell id="24" value="lambdaRoleDefaultPolicyA63A8A92" style="outlineConnect=0;fontColor=#B3B3B3;gradientColor=#F54749;gradientDirection=north;fillColor=#C7131F;strokeColor=#ffffff;dashed=0;verticalLabelPosition=bottom;verticalAlign=top;align=center;html=1;fontSize=12;fontStyle=0;aspect=fixed;shape=mxgraph.aws4.resourceIcon;resIcon=mxgraph.aws4.identity_and_access_management;" vertex="1" parent="1"><mxGeometry x="500" y="1250" width="50" height="50" as="geometry"/></mxCell><mxCell id="25" value="lambdaLayer857D4AF4" style="outlineConnect=0;fontColor=#B3B3B3;gradientColor=#F78E04;gradientDirection=north;fillColor=#D05C17;strokeColor=#ffffff;dashed=0;verticalLabelPosition=bottom;verticalAlign=top;align=center;html=1;fontSize=12;fontStyle=0;aspect=fixed;shape=mxgraph.aws4.resourceIcon;resIcon=mxgraph.aws4.lambda;" vertex="1" parent="1"><mxGeometry x="750" y="1075" width="50" height="50" as="geometry"/></mxCell><mxCell id="26" value="uploads3lambdafunction1A469C00" style="outlineConnect=0;fontColor=#B3B3B3;gradientColor=#F78E04;gradientDirection=north;fillColor=#D05C17;strokeColor=#ffffff;dashed=0;verticalLabelPosition=bottom;verticalAlign=top;align=center;html=1;fontSize=12;fontStyle=0;aspect=fixed;shape=mxgraph.aws4.resourceIcon;resIcon=mxgraph.aws4.lambda;" vertex="1" parent="1"><mxGeometry x="250" y="1000" width="50" height="50" as="geometry"/></mxCell><mxCell id="27" value="uploads3lambdafunctionPermitAPIGInvocation15AD75B0" style="outlineConnect=0;fontColor=#B3B3B3;gradientColor=#F54749;gradientDirection=north;fillColor=#C7131F;strokeColor=#ffffff;dashed=0;verticalLabelPosition=bottom;verticalAlign=top;align=center;html=1;fontSize=12;fontStyle=0;aspect=fixed;shape=mxgraph.aws4.resourceIcon;resIcon=mxgraph.aws4.policy;" vertex="1" parent="1"><mxGeometry y="1075" width="50" height="50" as="geometry"/></mxCell><mxCell id="28" value="lambdapolicyA5E98E09" style="outlineConnect=0;fontColor=#B3B3B3;gradientColor=#F54749;gradientDirection=north;fillColor=#C7131F;strokeColor=#ffffff;dashed=0;verticalLabelPosition=bottom;verticalAlign=top;align=center;html=1;fontSize=12;fontStyle=0;aspect=fixed;shape=mxgraph.aws4.resourceIcon;resIcon=mxgraph.aws4.identity_and_access_management;" vertex="1" parent="1"><mxGeometry y="1175" width="50" height="50" as="geometry"/></mxCell><mxCell id="29" value="imageresizeeblambdafunction0CB2436C" style="outlineConnect=0;fontColor=#B3B3B3;gradientColor=#F78E04;gradientDirection=north;fillColor=#D05C17;strokeColor=#ffffff;dashed=0;verticalLabelPosition=bottom;verticalAlign=top;align=center;html=1;fontSize=12;fontStyle=0;aspect=fixed;shape=mxgraph.aws4.resourceIcon;resIcon=mxgraph.aws4.lambda;" vertex="1" parent="1"><mxGeometry x="500" y="1700" width="50" height="50" as="geometry"/></mxCell><mxCell id="30" value="s3oeventbridgepolicy9BFC6607" style="outlineConnect=0;fontColor=#B3B3B3;gradientColor=#F54749;gradientDirection=north;fillColor=#C7131F;strokeColor=#ffffff;dashed=0;verticalLabelPosition=bottom;verticalAlign=top;align=center;html=1;fontSize=12;fontStyle=0;aspect=fixed;shape=mxgraph.aws4.resourceIcon;resIcon=mxgraph.aws4.identity_and_access_management;" vertex="1" parent="1"><mxGeometry y="1275" width="50" height="50" as="geometry"/></mxCell><mxCell id="31" value="ruleF2C1DCDC" style="outlineConnect=0;fontColor=#B3B3B3;gradientColor=#F34482;gradientDirection=north;fillColor=#BC1356;strokeColor=#ffffff;dashed=0;verticalLabelPosition=bottom;verticalAlign=top;align=center;html=1;fontSize=12;fontStyle=0;aspect=fixed;shape=mxgraph.aws4.resourceIcon;resIcon=mxgraph.aws4.eventbridge;" vertex="1" parent="1"><mxGeometry x="250" y="1750" width="50" height="50" as="geometry"/></mxCell><mxCell id="32" value="ruleAllowEventRulepumpedmainimageresizeeblambdafunctionDE8CD136C3C5F9FD" style="outlineConnect=0;fontColor=#B3B3B3;gradientColor=#F54749;gradientDirection=north;fillColor=#C7131F;strokeColor=#ffffff;dashed=0;verticalLabelPosition=bottom;verticalAlign=top;align=center;html=1;fontSize=12;fontStyle=0;aspect=fixed;shape=mxgraph.aws4.resourceIcon;resIcon=mxgraph.aws4.policy;" vertex="1" parent="1"><mxGeometry y="1375" width="50" height="50" as="geometry"/></mxCell><mxCell id="33" value="dlQueue819AE35E" style="outlineConnect=0;fontColor=#B3B3B3;gradientColor=#F34482;gradientDirection=north;fillColor=#BC1356;strokeColor=#ffffff;dashed=0;verticalLabelPosition=bottom;verticalAlign=top;align=center;html=1;fontSize=12;fontStyle=0;aspect=fixed;shape=mxgraph.aws4.resourceIcon;resIcon=mxgraph.aws4.sqs;" vertex="1" parent="1"><mxGeometry x="500" y="1800" width="50" height="50" as="geometry"/></mxCell><mxCell id="34" value="dlQueuePolicy8C1850E4" style="outlineConnect=0;fontColor=#B3B3B3;gradientColor=#F34482;gradientDirection=north;fillColor=#BC1356;strokeColor=#ffffff;dashed=0;verticalLabelPosition=bottom;verticalAlign=top;align=center;html=1;fontSize=12;fontStyle=0;aspect=fixed;shape=mxgraph.aws4.resourceIcon;resIcon=mxgraph.aws4.sqs;" vertex="1" parent="1"><mxGeometry y="1787.5" width="50" height="50" as="geometry"/></mxCell><mxCell id="35" value="fnuploads3lambdaloggroupC56D1BCA" style="outlineConnect=0;fontColor=#B3B3B3;gradientColor=#F34482;gradientDirection=north;fillColor=#BC1356;strokeColor=#ffffff;dashed=0;verticalLabelPosition=bottom;verticalAlign=top;align=center;html=1;fontSize=12;fontStyle=0;aspect=fixed;shape=mxgraph.aws4.resourceIcon;resIcon=mxgraph.aws4.cloudwatch;" vertex="1" parent="1"><mxGeometry y="1950" width="50" height="50" as="geometry"/></mxCell><mxCell id="36" value="fnimageresizeeblambdaloggroup727EC195" style="outlineConnect=0;fontColor=#B3B3B3;gradientColor=#F34482;gradientDirection=north;fillColor=#BC1356;strokeColor=#ffffff;dashed=0;verticalLabelPosition=bottom;verticalAlign=top;align=center;html=1;fontSize=12;fontStyle=0;aspect=fixed;shape=mxgraph.aws4.resourceIcon;resIcon=mxgraph.aws4.cloudwatch;" vertex="1" parent="1"><mxGeometry y="2100" width="50" height="50" as="geometry"/></mxCell><mxCell id="37" value="CDKMetadata" style="outlineConnect=0;fontColor=#B3B3B3;gradientColor=#aaaaaa;gradientDirection=north;fillColor=#aaaaaa;strokeColor=#ffffff;dashed=0;verticalLabelPosition=bottom;verticalAlign=top;align=center;html=1;fontSize=12;fontStyle=0;aspect=fixed;shape=mxgraph.aws4.resourceIcon;resIcon=mxgraph.aws4.cdk;" vertex="1" parent="1"><mxGeometry y="2250" width="50" height="50" as="geometry"/></mxCell><mxCell id="38" value="iam  aws&#xA;policy/service-role/awslambdabasicexecutionrole" style="outlineConnect=0;fontColor=#B3B3B3;gradientColor=#aaaaaa;gradientDirection=north;fillColor=#aaaaaa;strokeColor=#ffffff;dashed=0;verticalLabelPosition=bottom;verticalAlign=top;align=center;html=1;fontSize=12;fontStyle=0;aspect=fixed;shape=mxgraph.aws4.resourceIcon;resIcon=mxgraph.aws4.identity_and_access_management;" vertex="1" parent="1"><mxGeometry x="750" y="200" width="50" height="50" as="geometry"/></mxCell><mxCell id="39" value="logs eu-west-1 *&#xA;*" style="outlineConnect=0;fontColor=#B3B3B3;gradientColor=#aaaaaa;gradientDirection=north;fillColor=#aaaaaa;strokeColor=#ffffff;dashed=0;verticalLabelPosition=bottom;verticalAlign=top;align=center;html=1;fontSize=12;fontStyle=0;aspect=fixed;shape=mxgraph.aws4.resourceIcon;resIcon=mxgraph.aws4.cloudwatch;" vertex="1" parent="1"><mxGeometry x="250" y="1350" width="50" height="50" as="geometry"/></mxCell><mxCell id="40" value="ec2 eu-west-1 *&#xA;*" style="outlineConnect=0;fontColor=#B3B3B3;gradientColor=#aaaaaa;gradientDirection=north;fillColor=#aaaaaa;strokeColor=#ffffff;dashed=0;verticalLabelPosition=bottom;verticalAlign=top;align=center;html=1;fontSize=12;fontStyle=0;aspect=fixed;shape=mxgraph.aws4.resourceIcon;resIcon=mxgraph.aws4.ec2;" vertex="1" parent="1"><mxGeometry x="250" y="1450" width="50" height="50" as="geometry"/></mxCell><mxCell id="imageuploadbucketpumped10AD1F81|imageuploadbucketpumpedPolicyDF856C25" value="Bucket&#xA;Resource" style="edgeStyle=orthogonalEdgeStyle;rounded=1;orthogonalLoop=1;jettySize=auto;html=1;labelBackgroundColor=none;fontColor=#EA6B66;noEdgeStyle=1;orthogonal=1;" edge="1" parent="1" source="3" target="2"><mxGeometry relative="1" as="geometry"><Array as="points"><mxPoint x="312" y="165"/><mxPoint x="400" y="150"/><mxPoint x="650" y="150"/><mxPoint x="738" y="977.5"/></Array></mxGeometry></mxCell><mxCell id="CustomS3AutoDeleteObjectsCustomResourceProviderRole3B1BD092|imageuploadbucketpumpedPolicyDF856C25" value="AWS" style="edgeStyle=orthogonalEdgeStyle;rounded=1;orthogonalLoop=1;jettySize=auto;html=1;labelBackgroundColor=none;fontColor=#EA6B66;noEdgeStyle=1;orthogonal=1;" edge="1" parent="1" source="3" target="6"><mxGeometry relative="1" as="geometry"><Array as="points"><mxPoint x="312" y="185"/><mxPoint x="488" y="215"/></Array></mxGeometry></mxCell><mxCell id="imageuploadbucketpumped10AD1F81|imageuploadbucketpumpedAutoDeleteObjectsCustomResourceC875B7A8" value="BucketName" style="edgeStyle=orthogonalEdgeStyle;rounded=1;orthogonalLoop=1;jettySize=auto;html=1;labelBackgroundColor=none;fontColor=#EA6B66;noEdgeStyle=1;orthogonal=1;" edge="1" parent="1" source="4" target="2"><mxGeometry relative="1" as="geometry"><Array as="points"><mxPoint x="62" y="277.5"/><mxPoint x="150" y="250"/><mxPoint x="400" y="250"/><mxPoint x="400" y="300"/><mxPoint x="650" y="300"/><mxPoint x="736" y="982.5"/></Array></mxGeometry></mxCell><mxCell id="CustomS3AutoDeleteObjectsCustomResourceProviderHandler9D90184F|imageuploadbucketpumpedAutoDeleteObjectsCustomResourceC875B7A8" value="ServiceToken" style="edgeStyle=orthogonalEdgeStyle;rounded=1;orthogonalLoop=1;jettySize=auto;html=1;labelBackgroundColor=none;fontColor=#EA6B66;noEdgeStyle=1;orthogonal=1;" edge="1" parent="1" source="4" target="7"><mxGeometry relative="1" as="geometry"><Array as="points"><mxPoint x="62" y="297.5"/><mxPoint x="238" y="325"/></Array></mxGeometry></mxCell><mxCell id="imageuploadbucketpumped10AD1F81|imageuploadbucketpumpedNotifications9F003122" value="BucketName" style="edgeStyle=orthogonalEdgeStyle;rounded=1;orthogonalLoop=1;jettySize=auto;html=1;labelBackgroundColor=none;fontColor=#EA6B66;noEdgeStyle=1;orthogonal=1;" edge="1" parent="1" source="5" target="2"><mxGeometry relative="1" as="geometry"><Array as="points"><mxPoint x="62" y="427.5"/><mxPoint x="150" y="400"/><mxPoint x="400" y="400"/><mxPoint x="400" y="400"/><mxPoint x="650" y="400"/><mxPoint x="732" y="992.5"/></Array></mxGeometry></mxCell><mxCell id="BucketNotificationsHandler050a0587b7544547bf325f094a3db8347ECC3691|imageuploadbucketpumpedNotifications9F003122" value="ServiceToken" style="edgeStyle=orthogonalEdgeStyle;rounded=1;orthogonalLoop=1;jettySize=auto;html=1;labelBackgroundColor=none;fontColor=#EA6B66;noEdgeStyle=1;orthogonal=1;" edge="1" parent="1" source="5" target="10"><mxGeometry relative="1" as="geometry"><Array as="points"><mxPoint x="62" y="447.5"/><mxPoint x="238" y="475"/></Array></mxGeometry></mxCell><mxCell id="iam  aws&#xA;policy/service-role/awslambdabasicexecutionrole|CustomS3AutoDeleteObjectsCustomResourceProviderRole3B1BD092" value="ManagedPolicyArns" style="edgeStyle=orthogonalEdgeStyle;rounded=1;orthogonalLoop=1;jettySize=auto;html=1;labelBackgroundColor=none;fontColor=#EA6B66;noEdgeStyle=1;orthogonal=1;" edge="1" parent="1" source="6" target="38"><mxGeometry relative="1" as="geometry"><Array as="points"><mxPoint x="562" y="225"/><mxPoint x="738" y="225"/></Array></mxGeometry></mxCell><mxCell id="imageuploadbucketpumped10AD1F81|CustomS3AutoDeleteObjectsCustomResourceProviderHandler9D90184F" value="Description" style="edgeStyle=orthogonalEdgeStyle;rounded=1;orthogonalLoop=1;jettySize=auto;html=1;labelBackgroundColor=none;fontColor=#EA6B66;noEdgeStyle=1;orthogonal=1;" edge="1" parent="1" source="7" target="2"><mxGeometry relative="1" as="geometry"><Array as="points"><mxPoint x="312" y="335"/><mxPoint x="400" y="350"/><mxPoint x="650" y="350"/><mxPoint x="734" y="987.5"/></Array></mxGeometry></mxCell><mxCell id="CustomS3AutoDeleteObjectsCustomResourceProviderRole3B1BD092|CustomS3AutoDeleteObjectsCustomResourceProviderHandler9D90184F" value="Role" style="edgeStyle=orthogonalEdgeStyle;rounded=1;orthogonalLoop=1;jettySize=auto;html=1;labelBackgroundColor=none;fontColor=#EA6B66;noEdgeStyle=1;orthogonal=1;" edge="1" parent="1" source="7" target="6"><mxGeometry relative="1" as="geometry"><Array as="points"><mxPoint x="312" y="315"/><mxPoint x="488" y="235"/></Array></mxGeometry></mxCell><mxCell id="BucketNotificationsHandler050a0587b7544547bf325f094a3db834RoleB6FB88EC|BucketNotificationsHandler050a0587b7544547bf325f094a3db834RoleDefaultPolicy2CF63D36" value="Roles" style="edgeStyle=orthogonalEdgeStyle;rounded=1;orthogonalLoop=1;jettySize=auto;html=1;labelBackgroundColor=none;fontColor=#EA6B66;noEdgeStyle=1;orthogonal=1;" edge="1" parent="1" source="9" target="8"><mxGeometry relative="1" as="geometry"><Array as="points"><mxPoint x="312" y="575"/><mxPoint x="488" y="485"/></Array></mxGeometry></mxCell><mxCell id="BucketNotificationsHandler050a0587b7544547bf325f094a3db834RoleB6FB88EC|BucketNotificationsHandler050a0587b7544547bf325f094a3db8347ECC3691" value="Role" style="edgeStyle=orthogonalEdgeStyle;rounded=1;orthogonalLoop=1;jettySize=auto;html=1;labelBackgroundColor=none;fontColor=#EA6B66;noEdgeStyle=1;orthogonal=1;" edge="1" parent="1" source="10" target="8"><mxGeometry relative="1" as="geometry"><Array as="points"><mxPoint x="312" y="475"/><mxPoint x="488" y="465"/></Array></mxGeometry></mxCell><mxCell id="pumpedrestapiCloudWatchRole80D102B5|pumpedrestapiAccount8A41F302" value="CloudWatchRoleArn" style="edgeStyle=orthogonalEdgeStyle;rounded=1;orthogonalLoop=1;jettySize=auto;html=1;labelBackgroundColor=none;fontColor=#EA6B66;noEdgeStyle=1;orthogonal=1;" edge="1" parent="1" source="14" target="13"><mxGeometry relative="1" as="geometry"><Array as="points"><mxPoint x="62" y="25"/><mxPoint x="238" y="25"/></Array></mxGeometry></mxCell><mxCell id="pumpedrestapiA51E419C|pumpedrestapiDeploymentBF510CB5f893bbb11c815fe00d32d5635b70bcec" value="RestApiId" style="edgeStyle=orthogonalEdgeStyle;rounded=1;orthogonalLoop=1;jettySize=auto;html=1;labelBackgroundColor=none;fontColor=#EA6B66;noEdgeStyle=1;orthogonal=1;" edge="1" parent="1" source="15" target="12"><mxGeometry relative="1" as="geometry"><Array as="points"><mxPoint x="562" y="825"/><mxPoint x="730" y="825"/></Array></mxGeometry></mxCell><mxCell id="pumpedrestapiA51E419C|pumpedrestapiDeploymentStageprod7AA2D6C8" value="RestApiId" style="edgeStyle=orthogonalEdgeStyle;rounded=1;orthogonalLoop=1;jettySize=auto;html=1;labelBackgroundColor=none;fontColor=#EA6B66;noEdgeStyle=1;orthogonal=1;" edge="1" parent="1" source="16" target="12"><mxGeometry relative="1" as="geometry"><Array as="points"><mxPoint x="312" y="765"/><mxPoint x="400" y="750"/><mxPoint x="650" y="750"/><mxPoint x="732" y="819.4444444444445"/></Array></mxGeometry></mxCell><mxCell id="pumpedrestapiDeploymentBF510CB5f893bbb11c815fe00d32d5635b70bcec|pumpedrestapiDeploymentStageprod7AA2D6C8" value="DeploymentId" style="edgeStyle=orthogonalEdgeStyle;rounded=1;orthogonalLoop=1;jettySize=auto;html=1;labelBackgroundColor=none;fontColor=#EA6B66;noEdgeStyle=1;orthogonal=1;" edge="1" parent="1" source="16" target="15"><mxGeometry relative="1" as="geometry"><Array as="points"><mxPoint x="312" y="785"/><mxPoint x="488" y="825"/></Array></mxGeometry></mxCell><mxCell id="pumpedrestapiA51E419C|pumpedrestapiOPTIONS308FB916" value="RestApiId&#xA;ResourceId" style="edgeStyle=orthogonalEdgeStyle;rounded=1;orthogonalLoop=1;jettySize=auto;html=1;labelBackgroundColor=none;fontColor=#EA6B66;noEdgeStyle=1;orthogonal=1;" edge="1" parent="1" source="17" target="12"><mxGeometry relative="1" as="geometry"><Array as="points"><mxPoint x="562" y="575"/><mxPoint x="738" y="802.7777777777778"/></Array></mxGeometry></mxCell><mxCell id="pumpedrestapiA51E419C|pumpedrestapiupload133F41CF" value="RestApiId&#xA;ParentId" style="edgeStyle=orthogonalEdgeStyle;rounded=1;orthogonalLoop=1;jettySize=auto;html=1;labelBackgroundColor=none;fontColor=#EA6B66;noEdgeStyle=1;orthogonal=1;" edge="1" parent="1" source="18" target="12"><mxGeometry relative="1" as="geometry"><Array as="points"><mxPoint x="312" y="875"/><mxPoint x="400" y="900"/><mxPoint x="650" y="900"/><mxPoint x="732" y="830.5555555555555"/></Array></mxGeometry></mxCell><mxCell id="pumpedrestapiupload133F41CF|pumpedrestapiuploadOPTIONS409D9992" value="ResourceId" style="edgeStyle=orthogonalEdgeStyle;rounded=1;orthogonalLoop=1;jettySize=auto;html=1;labelBackgroundColor=none;fontColor=#EA6B66;noEdgeStyle=1;orthogonal=1;" edge="1" parent="1" source="19" target="18"><mxGeometry relative="1" as="geometry"><Array as="points"><mxPoint x="62" y="710"/><mxPoint x="238" y="865"/></Array></mxGeometry></mxCell><mxCell id="pumpedrestapiA51E419C|pumpedrestapiuploadOPTIONS409D9992" value="RestApiId" style="edgeStyle=orthogonalEdgeStyle;rounded=1;orthogonalLoop=1;jettySize=auto;html=1;labelBackgroundColor=none;fontColor=#EA6B66;noEdgeStyle=1;orthogonal=1;" edge="1" parent="1" source="19" target="12"><mxGeometry relative="1" as="geometry"><Array as="points"><mxPoint x="62" y="690"/><mxPoint x="150" y="650"/><mxPoint x="400" y="650"/><mxPoint x="400" y="650"/><mxPoint x="650" y="650"/><mxPoint x="736" y="808.3333333333334"/></Array></mxGeometry></mxCell><mxCell id="pumpedrestapiA51E419C|pumpedrestapiuploadPOSTApiPermissionpumpedmainpumpedrestapi2494B0A1POSTuploadDBC44DA7" value="SourceArn" style="edgeStyle=orthogonalEdgeStyle;rounded=1;orthogonalLoop=1;jettySize=auto;html=1;labelBackgroundColor=none;fontColor=#EA6B66;noEdgeStyle=1;orthogonal=1;" edge="1" parent="1" source="20" target="12"><mxGeometry relative="1" as="geometry"><Array as="points"><mxPoint x="62" y="786.6666666666666"/><mxPoint x="150" y="700"/><mxPoint x="400" y="700"/><mxPoint x="400" y="700"/><mxPoint x="650" y="700"/><mxPoint x="734" y="813.8888888888889"/></Array></mxGeometry></mxCell><mxCell id="pumpedrestapiDeploymentStageprod7AA2D6C8|pumpedrestapiuploadPOSTApiPermissionpumpedmainpumpedrestapi2494B0A1POSTuploadDBC44DA7" value="SourceArn" style="edgeStyle=orthogonalEdgeStyle;rounded=1;orthogonalLoop=1;jettySize=auto;html=1;labelBackgroundColor=none;fontColor=#EA6B66;noEdgeStyle=1;orthogonal=1;" edge="1" parent="1" source="20" target="16"><mxGeometry relative="1" as="geometry"><Array as="points"><mxPoint x="64" y="800"/><mxPoint x="238" y="775"/></Array></mxGeometry></mxCell><mxCell id="uploads3lambdafunction1A469C00|pumpedrestapiuploadPOSTApiPermissionpumpedmainpumpedrestapi2494B0A1POSTuploadDBC44DA7" value="FunctionName" style="edgeStyle=orthogonalEdgeStyle;rounded=1;orthogonalLoop=1;jettySize=auto;html=1;labelBackgroundColor=none;fontColor=#EA6B66;noEdgeStyle=1;orthogonal=1;" edge="1" parent="1" source="20" target="26"><mxGeometry relative="1" as="geometry"><Array as="points"><mxPoint x="62" y="813.3333333333334"/><mxPoint x="238" y="1010"/></Array></mxGeometry></mxCell><mxCell id="pumpedrestapiA51E419C|pumpedrestapiuploadPOSTApiPermissionTestpumpedmainpumpedrestapi2494B0A1POSTupload8614CBD0" value="SourceArn" style="edgeStyle=orthogonalEdgeStyle;rounded=1;orthogonalLoop=1;jettySize=auto;html=1;labelBackgroundColor=none;fontColor=#EA6B66;noEdgeStyle=1;orthogonal=1;" edge="1" parent="1" source="21" target="12"><mxGeometry relative="1" as="geometry"><Array as="points"><mxPoint x="62" y="890"/><mxPoint x="150" y="950"/><mxPoint x="400" y="950"/><mxPoint x="400" y="950"/><mxPoint x="650" y="950"/><mxPoint x="734" y="836.1111111111111"/></Array></mxGeometry></mxCell><mxCell id="uploads3lambdafunction1A469C00|pumpedrestapiuploadPOSTApiPermissionTestpumpedmainpumpedrestapi2494B0A1POSTupload8614CBD0" value="FunctionName" style="edgeStyle=orthogonalEdgeStyle;rounded=1;orthogonalLoop=1;jettySize=auto;html=1;labelBackgroundColor=none;fontColor=#EA6B66;noEdgeStyle=1;orthogonal=1;" edge="1" parent="1" source="21" target="26"><mxGeometry relative="1" as="geometry"><Array as="points"><mxPoint x="62" y="910"/><mxPoint x="236" y="1020"/></Array></mxGeometry></mxCell><mxCell id="pumpedrestapiupload133F41CF|pumpedrestapiuploadPOSTEE47E70C" value="ResourceId" style="edgeStyle=orthogonalEdgeStyle;rounded=1;orthogonalLoop=1;jettySize=auto;html=1;labelBackgroundColor=none;fontColor=#EA6B66;noEdgeStyle=1;orthogonal=1;" edge="1" parent="1" source="22" target="18"><mxGeometry relative="1" as="geometry"><Array as="points"><mxPoint x="62" y="986.6666666666666"/><mxPoint x="238" y="885"/></Array></mxGeometry></mxCell><mxCell id="pumpedrestapiA51E419C|pumpedrestapiuploadPOSTEE47E70C" value="RestApiId" style="edgeStyle=orthogonalEdgeStyle;rounded=1;orthogonalLoop=1;jettySize=auto;html=1;labelBackgroundColor=none;fontColor=#EA6B66;noEdgeStyle=1;orthogonal=1;" edge="1" parent="1" source="22" target="12"><mxGeometry relative="1" as="geometry"><Array as="points"><mxPoint x="62" y="1013.3333333333334"/><mxPoint x="150" y="1100"/><mxPoint x="400" y="1100"/><mxPoint x="400" y="1150"/><mxPoint x="650" y="1150"/><mxPoint x="736" y="841.6666666666666"/></Array></mxGeometry></mxCell><mxCell id="uploads3lambdafunction1A469C00|pumpedrestapiuploadPOSTEE47E70C" value="Uri" style="edgeStyle=orthogonalEdgeStyle;rounded=1;orthogonalLoop=1;jettySize=auto;html=1;labelBackgroundColor=none;fontColor=#EA6B66;noEdgeStyle=1;orthogonal=1;" edge="1" parent="1" source="22" target="26"><mxGeometry relative="1" as="geometry"><Array as="points"><mxPoint x="64" y="1000"/><mxPoint x="236" y="1030"/></Array></mxGeometry></mxCell><mxCell id="lambdaRoleC844FDB1|lambdaRoleDefaultPolicyA63A8A92" value="Roles" style="edgeStyle=orthogonalEdgeStyle;rounded=1;orthogonalLoop=1;jettySize=auto;html=1;labelBackgroundColor=none;fontColor=#EA6B66;noEdgeStyle=1;orthogonal=1;" edge="1" parent="1" source="24" target="23"><mxGeometry relative="1" as="geometry"><Array as="points"><mxPoint x="562" y="1285"/><mxPoint x="736" y="1342"/></Array></mxGeometry></mxCell><mxCell id="imageuploadbucketpumped10AD1F81|lambdaRoleDefaultPolicyA63A8A92" value="Resource" style="edgeStyle=orthogonalEdgeStyle;rounded=1;orthogonalLoop=1;jettySize=auto;html=1;labelBackgroundColor=none;fontColor=#EA6B66;noEdgeStyle=1;orthogonal=1;" edge="1" parent="1" source="24" target="2"><mxGeometry relative="1" as="geometry"><Array as="points"><mxPoint x="562" y="1265"/><mxPoint x="730" y="1002.5"/></Array></mxGeometry></mxCell><mxCell id="imageuploadbucketpumped10AD1F81|uploads3lambdafunction1A469C00" value="Variable" style="edgeStyle=orthogonalEdgeStyle;rounded=1;orthogonalLoop=1;jettySize=auto;html=1;labelBackgroundColor=none;fontColor=#EA6B66;noEdgeStyle=1;orthogonal=1;" edge="1" parent="1" source="26" target="2"><mxGeometry relative="1" as="geometry"><Array as="points"><mxPoint x="312" y="1010"/><mxPoint x="400" y="1000"/><mxPoint x="650" y="1000"/><mxPoint x="730" y="997.5"/></Array></mxGeometry></mxCell><mxCell id="AppEventBusAEEA9E1B|uploads3lambdafunction1A469C00" value="Variable" style="edgeStyle=orthogonalEdgeStyle;rounded=1;orthogonalLoop=1;jettySize=auto;html=1;labelBackgroundColor=none;fontColor=#EA6B66;noEdgeStyle=1;orthogonal=1;" edge="1" parent="1" source="26" target="11"><mxGeometry relative="1" as="geometry"><Array as="points"><mxPoint x="312" y="1040"/><mxPoint x="488" y="1461.6666666666667"/></Array></mxGeometry></mxCell><mxCell id="lambdaLayer857D4AF4|uploads3lambdafunction1A469C00" value="Layers" style="edgeStyle=orthogonalEdgeStyle;rounded=1;orthogonalLoop=1;jettySize=auto;html=1;labelBackgroundColor=none;fontColor=#EA6B66;noEdgeStyle=1;orthogonal=1;" edge="1" parent="1" source="26" target="25"><mxGeometry relative="1" as="geometry"><Array as="points"><mxPoint x="314" y="1020"/><mxPoint x="400" y="1050"/><mxPoint x="650" y="1050"/><mxPoint x="738" y="1090"/></Array></mxGeometry></mxCell><mxCell id="lambdaRoleC844FDB1|uploads3lambdafunction1A469C00" value="Role" style="edgeStyle=orthogonalEdgeStyle;rounded=1;orthogonalLoop=1;jettySize=auto;html=1;labelBackgroundColor=none;fontColor=#EA6B66;noEdgeStyle=1;orthogonal=1;" edge="1" parent="1" source="26" target="23"><mxGeometry relative="1" as="geometry"><Array as="points"><mxPoint x="314" y="1030"/><mxPoint x="400" y="1100"/><mxPoint x="650" y="1100"/><mxPoint x="738" y="1334"/></Array></mxGeometry></mxCell><mxCell id="pumpedrestapiA51E419C|uploads3lambdafunctionPermitAPIGInvocation15AD75B0" value="SourceArn" style="edgeStyle=orthogonalEdgeStyle;rounded=1;orthogonalLoop=1;jettySize=auto;html=1;labelBackgroundColor=none;fontColor=#EA6B66;noEdgeStyle=1;orthogonal=1;" edge="1" parent="1" source="27" target="12"><mxGeometry relative="1" as="geometry"><Array as="points"><mxPoint x="62" y="1110"/><mxPoint x="150" y="1150"/><mxPoint x="400" y="1150"/><mxPoint x="400" y="1200"/><mxPoint x="650" y="1200"/><mxPoint x="738" y="847.2222222222222"/></Array></mxGeometry></mxCell><mxCell id="uploads3lambdafunction1A469C00|uploads3lambdafunctionPermitAPIGInvocation15AD75B0" value="FunctionName" style="edgeStyle=orthogonalEdgeStyle;rounded=1;orthogonalLoop=1;jettySize=auto;html=1;labelBackgroundColor=none;fontColor=#EA6B66;noEdgeStyle=1;orthogonal=1;" edge="1" parent="1" source="27" target="26"><mxGeometry relative="1" as="geometry"><Array as="points"><mxPoint x="62" y="1090"/><mxPoint x="238" y="1040"/></Array></mxGeometry></mxCell><mxCell id="logs eu-west-1 *&#xA;*|lambdapolicyA5E98E09" value="Resource" style="edgeStyle=orthogonalEdgeStyle;rounded=1;orthogonalLoop=1;jettySize=auto;html=1;labelBackgroundColor=none;fontColor=#EA6B66;noEdgeStyle=1;orthogonal=1;" edge="1" parent="1" source="28" target="39"><mxGeometry relative="1" as="geometry"><Array as="points"><mxPoint x="64" y="1208"/><mxPoint x="238" y="1365"/></Array></mxGeometry></mxCell><mxCell id="ec2 eu-west-1 *&#xA;*|lambdapolicyA5E98E09" value="Resource" style="edgeStyle=orthogonalEdgeStyle;rounded=1;orthogonalLoop=1;jettySize=auto;html=1;labelBackgroundColor=none;fontColor=#EA6B66;noEdgeStyle=1;orthogonal=1;" edge="1" parent="1" source="28" target="40"><mxGeometry relative="1" as="geometry"><Array as="points"><mxPoint x="62" y="1216"/><mxPoint x="238" y="1465"/></Array></mxGeometry></mxCell><mxCell id="lambdaRoleC844FDB1|lambdapolicyA5E98E09" value="Roles" style="edgeStyle=orthogonalEdgeStyle;rounded=1;orthogonalLoop=1;jettySize=auto;html=1;labelBackgroundColor=none;fontColor=#EA6B66;noEdgeStyle=1;orthogonal=1;" edge="1" parent="1" source="28" target="23"><mxGeometry relative="1" as="geometry"><Array as="points"><mxPoint x="62" y="1184"/><mxPoint x="150" y="1200"/><mxPoint x="400" y="1200"/><mxPoint x="400" y="1350"/><mxPoint x="650" y="1350"/><mxPoint x="734" y="1350"/></Array></mxGeometry></mxCell><mxCell id="imageuploadbucketpumped10AD1F81|lambdapolicyA5E98E09" value="Resource" style="edgeStyle=orthogonalEdgeStyle;rounded=1;orthogonalLoop=1;jettySize=auto;html=1;labelBackgroundColor=none;fontColor=#EA6B66;noEdgeStyle=1;orthogonal=1;" edge="1" parent="1" source="28" target="2"><mxGeometry relative="1" as="geometry"><Array as="points"><mxPoint x="64" y="1192"/><mxPoint x="150" y="1250"/><mxPoint x="400" y="1250"/><mxPoint x="400" y="1400"/><mxPoint x="650" y="1400"/><mxPoint x="732" y="1007.5"/></Array></mxGeometry></mxCell><mxCell id="AppEventBusAEEA9E1B|lambdapolicyA5E98E09" value="Resource" style="edgeStyle=orthogonalEdgeStyle;rounded=1;orthogonalLoop=1;jettySize=auto;html=1;labelBackgroundColor=none;fontColor=#EA6B66;noEdgeStyle=1;orthogonal=1;" edge="1" parent="1" source="28" target="11"><mxGeometry relative="1" as="geometry"><Array as="points"><mxPoint x="66" y="1200"/><mxPoint x="150" y="1300"/><mxPoint x="400" y="1300"/><mxPoint x="486" y="1475"/></Array></mxGeometry></mxCell><mxCell id="imageuploadbucketpumped10AD1F81|imageresizeeblambdafunction0CB2436C" value="Variable" style="edgeStyle=orthogonalEdgeStyle;rounded=1;orthogonalLoop=1;jettySize=auto;html=1;labelBackgroundColor=none;fontColor=#EA6B66;noEdgeStyle=1;orthogonal=1;" edge="1" parent="1" source="29" target="2"><mxGeometry relative="1" as="geometry"><Array as="points"><mxPoint x="562" y="1711.6666666666667"/><mxPoint x="738" y="1022.5"/></Array></mxGeometry></mxCell><mxCell id="lambdaLayer857D4AF4|imageresizeeblambdafunction0CB2436C" value="Layers" style="edgeStyle=orthogonalEdgeStyle;rounded=1;orthogonalLoop=1;jettySize=auto;html=1;labelBackgroundColor=none;fontColor=#EA6B66;noEdgeStyle=1;orthogonal=1;" edge="1" parent="1" source="29" target="25"><mxGeometry relative="1" as="geometry"><Array as="points"><mxPoint x="564" y="1725"/><mxPoint x="738" y="1110"/></Array></mxGeometry></mxCell><mxCell id="lambdaRoleC844FDB1|imageresizeeblambdafunction0CB2436C" value="Role" style="edgeStyle=orthogonalEdgeStyle;rounded=1;orthogonalLoop=1;jettySize=auto;html=1;labelBackgroundColor=none;fontColor=#EA6B66;noEdgeStyle=1;orthogonal=1;" edge="1" parent="1" source="29" target="23"><mxGeometry relative="1" as="geometry"><Array as="points"><mxPoint x="562" y="1738.3333333333333"/><mxPoint x="738" y="1366"/></Array></mxGeometry></mxCell><mxCell id="logs eu-west-1 *&#xA;*|s3oeventbridgepolicy9BFC6607" value="Resource" style="edgeStyle=orthogonalEdgeStyle;rounded=1;orthogonalLoop=1;jettySize=auto;html=1;labelBackgroundColor=none;fontColor=#EA6B66;noEdgeStyle=1;orthogonal=1;" edge="1" parent="1" source="30" target="39"><mxGeometry relative="1" as="geometry"><Array as="points"><mxPoint x="62" y="1284"/><mxPoint x="238" y="1385"/></Array></mxGeometry></mxCell><mxCell id="ec2 eu-west-1 *&#xA;*|s3oeventbridgepolicy9BFC6607" value="Resource" style="edgeStyle=orthogonalEdgeStyle;rounded=1;orthogonalLoop=1;jettySize=auto;html=1;labelBackgroundColor=none;fontColor=#EA6B66;noEdgeStyle=1;orthogonal=1;" edge="1" parent="1" source="30" target="40"><mxGeometry relative="1" as="geometry"><Array as="points"><mxPoint x="64" y="1292"/><mxPoint x="238" y="1485"/></Array></mxGeometry></mxCell><mxCell id="lambdaRoleC844FDB1|s3oeventbridgepolicy9BFC6607" value="Roles" style="edgeStyle=orthogonalEdgeStyle;rounded=1;orthogonalLoop=1;jettySize=auto;html=1;labelBackgroundColor=none;fontColor=#EA6B66;noEdgeStyle=1;orthogonal=1;" edge="1" parent="1" source="30" target="23"><mxGeometry relative="1" as="geometry"><Array as="points"><mxPoint x="64" y="1308"/><mxPoint x="150" y="1600"/><mxPoint x="400" y="1600"/><mxPoint x="400" y="1550"/><mxPoint x="650" y="1550"/><mxPoint x="736" y="1358"/></Array></mxGeometry></mxCell><mxCell id="imageuploadbucketpumped10AD1F81|s3oeventbridgepolicy9BFC6607" value="Resource" style="edgeStyle=orthogonalEdgeStyle;rounded=1;orthogonalLoop=1;jettySize=auto;html=1;labelBackgroundColor=none;fontColor=#EA6B66;noEdgeStyle=1;orthogonal=1;" edge="1" parent="1" source="30" target="2"><mxGeometry relative="1" as="geometry"><Array as="points"><mxPoint x="62" y="1316"/><mxPoint x="150" y="1650"/><mxPoint x="400" y="1650"/><mxPoint x="400" y="1600"/><mxPoint x="650" y="1600"/><mxPoint x="734" y="1012.5"/></Array></mxGeometry></mxCell><mxCell id="AppEventBusAEEA9E1B|s3oeventbridgepolicy9BFC6607" value="Resource" style="edgeStyle=orthogonalEdgeStyle;rounded=1;orthogonalLoop=1;jettySize=auto;html=1;labelBackgroundColor=none;fontColor=#EA6B66;noEdgeStyle=1;orthogonal=1;" edge="1" parent="1" source="30" target="11"><mxGeometry relative="1" as="geometry"><Array as="points"><mxPoint x="66" y="1300"/><mxPoint x="150" y="1550"/><mxPoint x="400" y="1550"/><mxPoint x="488" y="1488.3333333333333"/></Array></mxGeometry></mxCell><mxCell id="imageuploadbucketpumped10AD1F81|ruleF2C1DCDC" value="name" style="edgeStyle=orthogonalEdgeStyle;rounded=1;orthogonalLoop=1;jettySize=auto;html=1;labelBackgroundColor=none;fontColor=#EA6B66;noEdgeStyle=1;orthogonal=1;" edge="1" parent="1" source="31" target="2"><mxGeometry relative="1" as="geometry"><Array as="points"><mxPoint x="312" y="1761.6666666666667"/><mxPoint x="400" y="1650"/><mxPoint x="650" y="1650"/><mxPoint x="736" y="1017.5"/></Array></mxGeometry></mxCell><mxCell id="imageresizeeblambdafunction0CB2436C|ruleF2C1DCDC" value="Arn" style="edgeStyle=orthogonalEdgeStyle;rounded=1;orthogonalLoop=1;jettySize=auto;html=1;labelBackgroundColor=none;fontColor=#EA6B66;noEdgeStyle=1;orthogonal=1;" edge="1" parent="1" source="31" target="29"><mxGeometry relative="1" as="geometry"><Array as="points"><mxPoint x="314" y="1775"/><mxPoint x="488" y="1735"/></Array></mxGeometry></mxCell><mxCell id="dlQueue819AE35E|ruleF2C1DCDC" value="Arn" style="edgeStyle=orthogonalEdgeStyle;rounded=1;orthogonalLoop=1;jettySize=auto;html=1;labelBackgroundColor=none;fontColor=#EA6B66;noEdgeStyle=1;orthogonal=1;" edge="1" parent="1" source="31" target="33"><mxGeometry relative="1" as="geometry"><Array as="points"><mxPoint x="312" y="1788.3333333333333"/><mxPoint x="488" y="1815"/></Array></mxGeometry></mxCell><mxCell id="imageresizeeblambdafunction0CB2436C|ruleAllowEventRulepumpedmainimageresizeeblambdafunctionDE8CD136C3C5F9FD" value="FunctionName" style="edgeStyle=orthogonalEdgeStyle;rounded=1;orthogonalLoop=1;jettySize=auto;html=1;labelBackgroundColor=none;fontColor=#EA6B66;noEdgeStyle=1;orthogonal=1;" edge="1" parent="1" source="32" target="29"><mxGeometry relative="1" as="geometry"><Array as="points"><mxPoint x="62" y="1390"/><mxPoint x="150" y="1700"/><mxPoint x="400" y="1700"/><mxPoint x="488" y="1715"/></Array></mxGeometry></mxCell><mxCell id="ruleF2C1DCDC|ruleAllowEventRulepumpedmainimageresizeeblambdafunctionDE8CD136C3C5F9FD" value="SourceArn" style="edgeStyle=orthogonalEdgeStyle;rounded=1;orthogonalLoop=1;jettySize=auto;html=1;labelBackgroundColor=none;fontColor=#EA6B66;noEdgeStyle=1;orthogonal=1;" edge="1" parent="1" source="32" target="31"><mxGeometry relative="1" as="geometry"><Array as="points"><mxPoint x="62" y="1410"/><mxPoint x="238" y="1765"/></Array></mxGeometry></mxCell><mxCell id="dlQueue819AE35E|dlQueuePolicy8C1850E4" value="Queues&#xA;Resource" style="edgeStyle=orthogonalEdgeStyle;rounded=1;orthogonalLoop=1;jettySize=auto;html=1;labelBackgroundColor=none;fontColor=#EA6B66;noEdgeStyle=1;orthogonal=1;" edge="1" parent="1" source="34" target="33"><mxGeometry relative="1" as="geometry"><Array as="points"><mxPoint x="62" y="1822.5"/><mxPoint x="150" y="1850"/><mxPoint x="400" y="1850"/><mxPoint x="488" y="1835"/></Array></mxGeometry></mxCell><mxCell id="ruleF2C1DCDC|dlQueuePolicy8C1850E4" value="aws:SourceArn" style="edgeStyle=orthogonalEdgeStyle;rounded=1;orthogonalLoop=1;jettySize=auto;html=1;labelBackgroundColor=none;fontColor=#EA6B66;noEdgeStyle=1;orthogonal=1;" edge="1" parent="1" source="34" target="31"><mxGeometry relative="1" as="geometry"><Array as="points"><mxPoint x="62" y="1802.5"/><mxPoint x="238" y="1785"/></Array></mxGeometry></mxCell></root></mxGraphModel>
            </diagram>
          </mxfile>